<?xml version="1.0" encoding="utf-8"?>
<!-- Generator: Adobe Illustrator 21.0.0, SVG Export Plug-In . SVG Version: 6.00 Build 0)  -->
<svg version="1.1" id="Layer_1" xmlns="http://www.w3.org/2000/svg" xmlns:xlink="http://www.w3.org/1999/xlink" x="0px" y="0px"
	 viewBox="0 0 73 30" style="enable-background:new 0 0 73 30;" xml:space="preserve">
<style type="text/css">
	.st0{fill:#00A2E1;}
	.st1{fill:#FFFFFF;}
</style>
<g>
	<path class="st0" d="M73,28c0,1.1-0.9,2-2,2H2c-1.1,0-2-0.9-2-2V2c0-1.1,0.9-2,2-2h69c1.1,0,2,0.9,2,2V28z"/>
</g>
<g>
	<path class="st1" d="M15.3,11.6h-2.4v6.7h-1.3v-6.7H9.1v-1.1h6.2V11.6z"/>
	<path class="st1" d="M15.5,15.4c0-0.6,0.1-1.1,0.3-1.5c0.2-0.5,0.5-0.8,0.9-1c0.4-0.2,0.9-0.4,1.4-0.4c0.8,0,1.5,0.3,1.9,0.8
		c0.2-0.1,0.3-0.2,0.4-0.4s0.1-0.5,0.1-0.9h0.9c0,0.5-0.1,0.9-0.2,1.2c-0.2,0.3-0.4,0.5-0.8,0.7c0.2,0.4,0.3,1,0.3,1.5v0.2
		c0,0.6-0.1,1.1-0.3,1.5c-0.2,0.5-0.5,0.8-1,1c-0.4,0.2-0.9,0.4-1.4,0.4c-0.8,0-1.5-0.3-2-0.8S15.5,16.4,15.5,15.4L15.5,15.4z
		 M16.8,15.5c0,0.6,0.1,1.1,0.4,1.4c0.2,0.3,0.6,0.5,1,0.5s0.8-0.2,1-0.5c0.2-0.3,0.4-0.8,0.4-1.5c0-0.6-0.1-1.1-0.4-1.4
		c-0.3-0.3-0.6-0.5-1-0.5c-0.4,0-0.8,0.2-1,0.5C16.9,14.3,16.8,14.8,16.8,15.5z M18.5,10.1H20l-1.5,1.6l-1,0L18.5,10.1z"/>
	<path class="st1" d="M22.1,11c0-0.2,0.1-0.4,0.2-0.5c0.1-0.1,0.3-0.2,0.5-0.2s0.4,0.1,0.5,0.2c0.1,0.1,0.2,0.3,0.2,0.5
		c0,0.2-0.1,0.4-0.2,0.5c-0.1,0.1-0.3,0.2-0.5,0.2s-0.4-0.1-0.5-0.2C22.1,11.4,22.1,11.2,22.1,11z M23.4,18.3h-1.3v-5.8h1.3V18.3z"
		/>
	<path class="st1" d="M28.8,12.5l0,0.7c0.4-0.5,1-0.8,1.7-0.8c1.2,0,1.8,0.7,1.8,2.1v3.8h-1.3v-3.8c0-0.4-0.1-0.6-0.2-0.8
		c-0.2-0.2-0.4-0.3-0.8-0.3c-0.5,0-0.9,0.2-1.2,0.7v4.1h-1.3v-5.8H28.8z"/>
	<path class="st1" d="M33.5,15.4c0-0.6,0.1-1.1,0.3-1.5c0.2-0.5,0.5-0.8,0.9-1c0.4-0.2,0.9-0.4,1.4-0.4c0.8,0,1.5,0.3,1.9,0.8
		c0.2-0.1,0.3-0.2,0.4-0.4s0.1-0.5,0.1-0.9h0.9c0,0.5-0.1,0.9-0.2,1.2c-0.2,0.3-0.4,0.5-0.8,0.7c0.2,0.4,0.3,1,0.3,1.5v0.2
		c0,0.6-0.1,1.1-0.3,1.5c-0.2,0.5-0.5,0.8-0.9,1c-0.4,0.2-0.9,0.4-1.4,0.4c-0.8,0-1.5-0.3-2-0.8C33.7,17.1,33.5,16.4,33.5,15.4
		L33.5,15.4z M34.8,15.5c0,0.6,0.1,1.1,0.4,1.4c0.2,0.3,0.6,0.5,1,0.5c0.4,0,0.8-0.2,1-0.5c0.2-0.3,0.4-0.8,0.4-1.5
		c0-0.6-0.1-1.1-0.4-1.4c-0.3-0.3-0.6-0.5-1-0.5c-0.4,0-0.8,0.2-1,0.5C34.9,14.3,34.8,14.8,34.8,15.5z"/>
	<path class="st1" d="M40.1,11c0-0.2,0.1-0.4,0.2-0.5c0.1-0.1,0.3-0.2,0.5-0.2s0.4,0.1,0.5,0.2c0.1,0.1,0.2,0.3,0.2,0.5
		c0,0.2-0.1,0.4-0.2,0.5c-0.1,0.1-0.3,0.2-0.5,0.2s-0.4-0.1-0.5-0.2C40.1,11.4,40.1,11.2,40.1,11z M41.5,18.3h-1.3v-5.8h1.3V18.3z"
		/>
	<path class="st1" d="M50.7,15.5c0,0.9-0.2,1.6-0.6,2.2c-0.4,0.5-1,0.8-1.7,0.8c-0.7,0-1.2-0.2-1.6-0.7l-0.1,0.6h-1.2v-8.3h1.3v3
		c0.4-0.4,0.9-0.7,1.5-0.7c0.7,0,1.3,0.3,1.7,0.8C50.5,13.7,50.7,14.5,50.7,15.5L50.7,15.5z M49.4,15.4c0-0.6-0.1-1.1-0.3-1.4
		c-0.2-0.3-0.5-0.5-1-0.5c-0.6,0-1,0.2-1.2,0.7v2.4c0.2,0.5,0.6,0.8,1.2,0.8c0.4,0,0.7-0.2,0.9-0.5c0.2-0.3,0.3-0.8,0.3-1.4V15.4z"
		/>
	<path class="st1" d="M55.3,18.3c-0.1-0.1-0.1-0.3-0.2-0.5c-0.4,0.4-0.9,0.7-1.5,0.7c-0.6,0-1.1-0.2-1.4-0.5
		c-0.4-0.3-0.6-0.7-0.6-1.2c0-0.6,0.2-1.1,0.7-1.4c0.5-0.3,1.1-0.5,2-0.5h0.8v-0.4c0-0.3-0.1-0.5-0.3-0.7c-0.2-0.2-0.4-0.3-0.8-0.3
		c-0.3,0-0.5,0.1-0.7,0.2C53.1,13.8,53,14,53,14.2h-1.3c0-0.3,0.1-0.6,0.3-0.9c0.2-0.3,0.5-0.5,0.9-0.7s0.8-0.2,1.2-0.2
		c0.7,0,1.2,0.2,1.6,0.5c0.4,0.3,0.6,0.8,0.6,1.4V17c0,0.5,0.1,0.9,0.2,1.3v0.1H55.3z M53.8,17.4c0.3,0,0.5-0.1,0.7-0.2
		c0.2-0.1,0.4-0.3,0.5-0.5v-1.1h-0.7c-0.5,0-0.8,0.1-1.1,0.3c-0.2,0.2-0.4,0.4-0.4,0.7c0,0.3,0.1,0.4,0.2,0.6
		C53.3,17.3,53.6,17.4,53.8,17.4z M54.6,10.1h1.5l-1.5,1.6l-1,0L54.6,10.1z"/>
	<path class="st1" d="M59,12.5l0,0.7c0.4-0.5,1-0.8,1.7-0.8c1.2,0,1.8,0.7,1.8,2.1v3.8h-1.3v-3.8c0-0.4-0.1-0.6-0.2-0.8
		c-0.2-0.2-0.4-0.3-0.8-0.3c-0.5,0-0.9,0.2-1.2,0.7v4.1h-1.3v-5.8H59z"/>
</g>
</svg>
