<?xml version="1.0" encoding="utf-8"?>
<!-- Generator: Adobe Illustrator 21.0.0, SVG Export Plug-In . SVG Version: 6.00 Build 0)  -->
<svg version="1.1" id="Layer_1" xmlns="http://www.w3.org/2000/svg" xmlns:xlink="http://www.w3.org/1999/xlink" x="0px" y="0px"
	 viewBox="0 0 160 30" style="enable-background:new 0 0 160 30;" xml:space="preserve">
<style type="text/css">
	.st0{fill:#FD6531;}
	.st1{fill:#FFFFFF;}
</style>
<g>
	<rect class="st0" width="160" height="30"/>
</g>
<g>
	<path class="st1" d="M52,17.9c0-0.4-0.1-0.7-0.4-0.9c-0.3-0.2-0.8-0.4-1.5-0.7s-1.3-0.5-1.8-0.7C47.4,15,47,14.3,47,13.4
		c0-0.7,0.3-1.4,0.9-1.8c0.6-0.5,1.4-0.7,2.4-0.7c0.6,0,1.2,0.1,1.7,0.4s0.9,0.6,1.2,1c0.3,0.4,0.4,0.9,0.4,1.5H52
		c0-0.5-0.2-0.9-0.5-1.1c-0.3-0.3-0.7-0.4-1.3-0.4c-0.5,0-0.9,0.1-1.2,0.3c-0.3,0.2-0.4,0.5-0.4,0.9c0,0.3,0.2,0.6,0.5,0.8
		s0.8,0.4,1.5,0.7s1.3,0.5,1.7,0.7c0.4,0.3,0.8,0.6,1,0.9c0.2,0.4,0.3,0.8,0.3,1.2c0,0.8-0.3,1.4-0.9,1.8c-0.6,0.5-1.4,0.7-2.4,0.7
		c-0.7,0-1.3-0.1-1.8-0.4c-0.6-0.2-1-0.6-1.3-1c-0.3-0.4-0.5-0.9-0.5-1.5h1.6c0,0.5,0.2,0.9,0.5,1.2s0.8,0.4,1.5,0.4
		c0.6,0,1-0.1,1.3-0.3C51.9,18.5,52,18.2,52,17.9z"/>
	<path class="st1" d="M54.6,16.8c0-0.7,0.1-1.3,0.4-1.8c0.3-0.5,0.6-1,1.1-1.2c0.5-0.3,1-0.4,1.7-0.4c0.9,0,1.7,0.3,2.3,0.9
		c0.6,0.6,0.9,1.4,0.9,2.4l0,0.4c0,0.7-0.1,1.3-0.4,1.8c-0.3,0.5-0.6,0.9-1.1,1.2c-0.5,0.3-1,0.4-1.7,0.4c-1,0-1.7-0.3-2.3-1
		C54.9,18.8,54.6,17.9,54.6,16.8L54.6,16.8z M56.1,16.9c0,0.7,0.1,1.3,0.4,1.7c0.3,0.4,0.7,0.6,1.2,0.6s0.9-0.2,1.2-0.6
		c0.3-0.4,0.4-1,0.4-1.8c0-0.7-0.1-1.2-0.4-1.6c-0.3-0.4-0.7-0.6-1.2-0.6c-0.5,0-0.9,0.2-1.2,0.6C56.3,15.5,56.1,16.1,56.1,16.9z"/>
	<path class="st1" d="M69.4,18.4c0-0.3-0.1-0.5-0.3-0.6c-0.2-0.1-0.6-0.3-1.1-0.4c-0.5-0.1-1-0.3-1.3-0.4c-0.8-0.4-1.2-0.9-1.2-1.6
		c0-0.6,0.2-1.1,0.7-1.5s1.1-0.6,1.9-0.6c0.8,0,1.5,0.2,2,0.6c0.5,0.4,0.8,0.9,0.8,1.6h-1.5c0-0.3-0.1-0.5-0.3-0.7
		c-0.2-0.2-0.5-0.3-0.9-0.3c-0.3,0-0.6,0.1-0.8,0.2c-0.2,0.2-0.3,0.4-0.3,0.6c0,0.2,0.1,0.4,0.3,0.6s0.6,0.3,1.2,0.4
		c0.6,0.1,1.1,0.3,1.4,0.5c0.3,0.2,0.6,0.4,0.8,0.7c0.2,0.3,0.3,0.6,0.3,0.9c0,0.6-0.3,1.1-0.8,1.5s-1.2,0.6-2,0.6
		c-0.6,0-1.1-0.1-1.5-0.3s-0.8-0.5-1-0.8s-0.4-0.7-0.4-1.1h1.5c0,0.4,0.2,0.6,0.4,0.8c0.3,0.2,0.6,0.3,1,0.3c0.4,0,0.7-0.1,0.9-0.2
		S69.4,18.6,69.4,18.4z"/>
	<path class="st1" d="M76.3,20.3c-0.1-0.1-0.1-0.3-0.2-0.6c-0.5,0.5-1.1,0.8-1.8,0.8c-0.7,0-1.3-0.2-1.7-0.6
		c-0.4-0.4-0.7-0.9-0.7-1.5c0-0.7,0.3-1.3,0.8-1.7c0.5-0.4,1.3-0.6,2.3-0.6h0.9v-0.5c0-0.4-0.1-0.6-0.3-0.9
		c-0.2-0.2-0.5-0.3-0.9-0.3c-0.4,0-0.6,0.1-0.9,0.3c-0.2,0.2-0.3,0.4-0.3,0.7h-1.5c0-0.4,0.1-0.7,0.4-1.1c0.2-0.3,0.6-0.6,1-0.8
		c0.4-0.2,0.9-0.3,1.4-0.3c0.8,0,1.4,0.2,1.9,0.6c0.5,0.4,0.7,1,0.7,1.7v3.1c0,0.6,0.1,1.1,0.3,1.5v0.1H76.3z M74.6,19.1
		c0.3,0,0.6-0.1,0.9-0.2c0.3-0.1,0.5-0.3,0.6-0.6V17h-0.8c-0.6,0-1,0.1-1.3,0.3c-0.3,0.2-0.4,0.5-0.4,0.8c0,0.3,0.1,0.5,0.3,0.7
		C74,19.1,74.3,19.1,74.6,19.1z M75.5,10.5h1.8l-1.8,1.9l-1.2,0L75.5,10.5z"/>
	<path class="st1" d="M80.7,13.4l0,0.8c0.5-0.6,1.2-0.9,2-0.9c1.4,0,2.2,0.8,2.2,2.5v4.5h-1.5v-4.4c0-0.4-0.1-0.8-0.3-1
		c-0.2-0.2-0.5-0.3-0.9-0.3c-0.6,0-1.1,0.3-1.4,0.8v4.9h-1.5v-6.9H80.7z"/>
	<path class="st1" d="M88,14.1c0.5-0.6,1.1-0.9,1.9-0.9c1.5,0,2.2,0.8,2.2,2.5v4.5h-1.5v-4.4c0-0.5-0.1-0.8-0.3-1
		c-0.2-0.2-0.5-0.3-0.9-0.3c-0.6,0-1.1,0.3-1.4,0.8v4.9h-1.5v-9.8H88V14.1z"/>
	<path class="st1" d="M96.7,16.8c0-1.1,0.3-1.9,0.8-2.6c0.5-0.6,1.2-1,2-1c0.8,0,1.4,0.3,1.8,0.8l0.1-0.7h1.4V20
		c0,0.9-0.3,1.6-0.8,2.1c-0.6,0.5-1.3,0.8-2.3,0.8c-0.5,0-1-0.1-1.5-0.3c-0.5-0.2-0.8-0.5-1.1-0.8l0.7-0.9c0.5,0.6,1.1,0.8,1.8,0.8
		c0.5,0,0.9-0.1,1.2-0.4c0.3-0.3,0.4-0.7,0.4-1.2v-0.5c-0.4,0.5-1,0.7-1.8,0.7c-0.8,0-1.5-0.3-2-1C96.9,18.8,96.7,17.9,96.7,16.8z
		 M98.2,16.9c0,0.7,0.1,1.2,0.4,1.6s0.7,0.6,1.2,0.6c0.6,0,1.1-0.3,1.4-0.8v-3c-0.3-0.5-0.7-0.8-1.4-0.8c-0.5,0-0.9,0.2-1.2,0.6
		S98.2,16.1,98.2,16.9z"/>
	<path class="st1" d="M104.3,11.6c0-0.2,0.1-0.4,0.2-0.6s0.4-0.2,0.6-0.2s0.5,0.1,0.6,0.2s0.2,0.4,0.2,0.6c0,0.2-0.1,0.4-0.2,0.6
		s-0.4,0.2-0.6,0.2s-0.5-0.1-0.6-0.2S104.3,11.8,104.3,11.6z M106,20.3h-1.5v-6.9h1.5V20.3z"/>
	<path class="st1" d="M111.7,20.3c-0.1-0.1-0.1-0.3-0.2-0.6c-0.5,0.5-1.1,0.8-1.8,0.8c-0.7,0-1.3-0.2-1.7-0.6
		c-0.4-0.4-0.7-0.9-0.7-1.5c0-0.7,0.3-1.3,0.8-1.7s1.3-0.6,2.3-0.6h0.9v-0.5c0-0.4-0.1-0.6-0.3-0.9c-0.2-0.2-0.5-0.3-0.9-0.3
		c-0.4,0-0.6,0.1-0.9,0.3c-0.2,0.2-0.3,0.4-0.3,0.7h-1.5c0-0.4,0.1-0.7,0.4-1.1c0.3-0.3,0.6-0.6,1-0.8s0.9-0.3,1.4-0.3
		c0.8,0,1.4,0.2,1.9,0.6c0.5,0.4,0.7,1,0.7,1.7v3.1c0,0.6,0.1,1.1,0.3,1.5v0.1H111.7z M110.1,19.1c0.3,0,0.6-0.1,0.9-0.2
		s0.5-0.3,0.6-0.6V17h-0.8c-0.6,0-1,0.1-1.3,0.3c-0.3,0.2-0.4,0.5-0.4,0.8c0,0.3,0.1,0.5,0.3,0.7C109.5,19.1,109.7,19.1,110.1,19.1z
		 M110.9,10.5h1.8l-1.8,1.9l-1.2,0L110.9,10.5z"/>
</g>
</svg>
