<?xml version="1.0" encoding="utf-8"?>
<!-- Generator: Adobe Illustrator 21.0.0, SVG Export Plug-In . SVG Version: 6.00 Build 0)  -->
<svg version="1.1" id="Layer_1" xmlns="http://www.w3.org/2000/svg" xmlns:xlink="http://www.w3.org/1999/xlink" x="0px" y="0px"
	 viewBox="0 0 110 30" style="enable-background:new 0 0 110 30;" xml:space="preserve">
<style type="text/css">
	.st0{fill:#FF6636;}
	.st1{fill:#FFFFFF;}
</style>
<g>
	<rect class="st0" width="110" height="30"/>
</g>
<g>
	<path class="st1" d="M28.3,12l2.1-3.6h2l-3,4.9l3.1,5h-2l-2.1-3.7l-2.1,3.7h-2l3.1-5l-3-4.9h2L28.3,12z"/>
	<path class="st1" d="M36.6,18.5c-1.1,0-1.9-0.3-2.6-1s-1-1.5-1-2.6v-0.2c0-0.7,0.1-1.4,0.4-2s0.7-1,1.2-1.4s1.1-0.5,1.7-0.5
		c1,0,1.8,0.3,2.3,1s0.8,1.6,0.8,2.7v0.7h-4.8c0.1,0.6,0.3,1.1,0.6,1.4s0.8,0.5,1.4,0.5c0.8,0,1.4-0.3,1.9-0.9l0.9,0.9
		c-0.3,0.4-0.7,0.8-1.2,1S37.2,18.5,36.6,18.5z M36.4,12.1c-0.5,0-0.8,0.2-1.1,0.5s-0.5,0.8-0.5,1.3h3.2v-0.1c0-0.6-0.2-1-0.4-1.3
		S36.9,12.1,36.4,12.1z"/>
	<path class="st1" d="M42.4,10.9l0,0.8c0.5-0.6,1.2-0.9,2.1-0.9c1,0,1.7,0.4,2,1.1c0.5-0.8,1.3-1.1,2.3-1.1c0.8,0,1.4,0.2,1.8,0.7
		c0.4,0.5,0.6,1.1,0.6,2v4.9h-1.7v-4.8c0-0.5-0.1-0.8-0.3-1s-0.5-0.3-1-0.3c-0.4,0-0.7,0.1-0.9,0.3s-0.4,0.5-0.5,0.8l0,5.1h-1.7
		v-4.9c0-0.9-0.5-1.3-1.3-1.3c-0.7,0-1.1,0.3-1.4,0.8v5.4h-1.7v-7.4H42.4z"/>
	<path class="st1" d="M58.1,10.9l0,0.9c0.5-0.7,1.3-1,2.2-1c1.5,0,2.3,0.9,2.4,2.6v4.9H61v-4.8c0-0.5-0.1-0.8-0.3-1
		c-0.2-0.2-0.5-0.3-1-0.3c-0.7,0-1.2,0.3-1.5,0.9v5.3h-1.7v-7.4H58.1z"/>
	<path class="st1" d="M64,14.6c0-1.1,0.3-2.1,0.8-2.8c0.5-0.7,1.3-1,2.1-1c0.8,0,1.5,0.3,2,0.9l0.1-0.7h1.5v7.2c0,1-0.3,1.7-0.9,2.3
		c-0.6,0.6-1.4,0.8-2.4,0.8c-0.5,0-1.1-0.1-1.6-0.3c-0.5-0.2-0.9-0.5-1.2-0.9l0.8-1c0.5,0.6,1.1,0.9,1.9,0.9c0.6,0,1-0.2,1.3-0.4
		s0.5-0.7,0.5-1.3v-0.5c-0.5,0.5-1.1,0.8-1.9,0.8c-0.9,0-1.6-0.3-2.1-1C64.3,16.8,64,15.8,64,14.6z M65.7,14.7
		c0,0.7,0.2,1.3,0.5,1.8c0.3,0.4,0.7,0.6,1.3,0.6c0.7,0,1.2-0.3,1.5-0.9V13c-0.3-0.6-0.8-0.8-1.5-0.8c-0.5,0-1,0.2-1.3,0.6
		C65.8,13.2,65.7,13.9,65.7,14.7z"/>
	<path class="st1" d="M76.7,18.3c-0.1-0.1-0.1-0.4-0.2-0.7c-0.5,0.6-1.2,0.8-1.9,0.8c-0.7,0-1.3-0.2-1.8-0.6S72,16.9,72,16.3
		c0-0.8,0.3-1.4,0.9-1.8c0.6-0.4,1.4-0.6,2.5-0.6h1v-0.5c0-0.4-0.1-0.7-0.3-0.9s-0.5-0.3-1-0.3c-0.4,0-0.7,0.1-0.9,0.3
		s-0.4,0.4-0.4,0.7h-1.7c0-0.4,0.1-0.8,0.4-1.1s0.6-0.6,1.1-0.8c0.5-0.2,1-0.3,1.5-0.3c0.9,0,1.6,0.2,2.1,0.7s0.8,1,0.8,1.8v3.3
		c0,0.7,0.1,1.2,0.3,1.6v0.1H76.7z M74.9,17.1c0.3,0,0.6-0.1,0.9-0.2c0.3-0.2,0.5-0.4,0.7-0.6v-1.4h-0.9c-0.6,0-1.1,0.1-1.4,0.3
		s-0.5,0.5-0.5,0.9c0,0.3,0.1,0.6,0.3,0.8C74.2,17,74.5,17.1,74.9,17.1z"/>
	<path class="st1" d="M82.3,16l1.5-5h1.8l-2.9,8.5c-0.5,1.2-1.2,1.9-2.3,1.9c-0.2,0-0.5,0-0.8-0.1v-1.3l0.3,0c0.4,0,0.7-0.1,0.9-0.2
		c0.2-0.2,0.4-0.4,0.5-0.8l0.2-0.6L79,10.9h1.8L82.3,16z"/>
</g>
</svg>
