<?xml version="1.0" encoding="utf-8"?>
<!-- Generator: Adobe Illustrator 22.0.0, SVG Export Plug-In . SVG Version: 6.00 Build 0)  -->
<svg version="1.1" id="Layer_1" xmlns="http://www.w3.org/2000/svg" xmlns:xlink="http://www.w3.org/1999/xlink" x="0px" y="0px"
	 viewBox="0 0 150 32" style="enable-background:new 0 0 150 32;" xml:space="preserve">
<style type="text/css">
	.st0{fill-rule:evenodd;clip-rule:evenodd;fill:#28ABE2;}
	.st1{fill-rule:evenodd;clip-rule:evenodd;fill:#58595B;}
</style>
<path class="st0" d="M75,12.7c0.3,0,0.5,0.2,0.5,0.5c0,0.3-0.2,0.5-0.5,0.5c-0.6,0-1.1,0.2-1.5,0.6c-0.4,0.4-0.6,0.9-0.6,1.5
	c0,0.3-0.2,0.5-0.5,0.5c-0.3,0-0.5-0.2-0.5-0.5c0-0.8,0.3-1.6,0.9-2.2C73.4,13,74.2,12.7,75,12.7L75,12.7z M81.4,21.1
	c1.3-1.5,1.9-3.3,1.9-5.3c0-2.3-0.8-4.3-2.4-5.9c-1.6-1.6-3.5-2.4-5.8-2.4c-2.4,0-4.4,0.8-6,2.4c-1.6,1.6-2.5,3.6-2.5,5.9
	c0,2.3,0.8,4.2,2.5,5.8c1.6,1.6,3.6,2.5,5.8,2.5c1.5,0,2.9-0.4,4.1-1.1l0.5,0.6c0.4-0.2,0.8-0.5,1.2-0.9c0.4-0.3,0.7-0.7,1.1-1.1
	L81.4,21.1L81.4,21.1z M82.5,22.4l5,5.9c0.5,0.6,0.4,1.6-0.2,2.1c-0.6,0.5-1.6,0.4-2.1-0.2l-5-5.9c0.4-0.3,0.8-0.5,1.2-0.9
	C81.8,23.1,82.2,22.8,82.5,22.4L82.5,22.4z M75,11.1c-0.6,0-1.2,0.1-1.7,0.4c-0.6,0.2-1,0.6-1.5,1c-0.9,0.9-1.3,2-1.3,3.3
	c0,1.3,0.4,2.4,1.3,3.3c0.9,0.9,1.9,1.3,3.2,1.3c1.3,0,2.4-0.4,3.3-1.3c0.9-0.9,1.3-2,1.3-3.3c0-1.3-0.4-2.4-1.3-3.3
	C77.4,11.6,76.3,11.1,75,11.1L75,11.1z M136.1,23.6V0.8h3.7v8.3c0.4-0.6,1-1,1.7-1.3c0.7-0.3,1.5-0.4,2.3-0.4c0.9,0,1.7,0.2,2.5,0.6
	c0.8,0.4,1.5,0.9,2.1,1.5c0.6,0.7,1.1,1.6,1.3,2.6c0.2,0.7,0.2,1.7,0.2,3v8.5h-3.8v-7.7c0-1.5-0.2-2.6-0.5-3.3
	c-0.5-1-1.4-1.5-2.7-1.5c-1.1,0-2,0.5-2.6,1.4c-0.2,0.4-0.4,0.8-0.5,1.3c-0.1,0.5-0.1,1-0.1,1.7V16v7.6H136.1L136.1,23.6z
	 M119.9,23.6V7.9h3.5v1.4c0.5-0.6,1.1-1.1,1.8-1.4c0.8-0.3,1.6-0.5,2.4-0.5c0.8,0,1.6,0.2,2.4,0.5c0.8,0.3,1.5,0.8,2,1.4l0.4,0.5
	c0.5,0.7,0.9,1.6,1.1,2.7c0.1,0.7,0.2,1.7,0.2,2.9v8.1H130v-7.4c0-0.8,0-1.6-0.1-2.2c-0.1-0.6-0.2-1.1-0.5-1.6
	c-0.3-0.4-0.6-0.7-1.1-1c-0.5-0.2-0.9-0.4-1.4-0.4c-0.5,0-1,0.1-1.5,0.3c-0.5,0.2-0.8,0.6-1.1,1c-0.3,0.4-0.4,1-0.5,1.6
	c-0.1,0.6-0.2,1.3-0.2,1.9v0.5v7.1H119.9L119.9,23.6z M117.7,7.9v15.6h-3.4v-2.1c-0.6,0.8-1.4,1.5-2.3,1.9c-1,0.5-2,0.7-3,0.7
	c-1.2,0-2.3-0.2-3.2-0.7c-1-0.5-1.8-1.1-2.5-2c-1.3-1.6-2-3.5-2-5.7c0-1.1,0.2-2.1,0.5-3c0.3-0.9,0.8-1.7,1.6-2.6
	c1.5-1.8,3.5-2.7,5.8-2.7c2.2,0,4,0.9,5.2,2.7V7.9H117.7L117.7,7.9z M114.1,15.7c0-1.3-0.4-2.4-1.3-3.3c-0.9-0.9-1.9-1.3-3.2-1.3
	h-0.2c-1.3,0-2.4,0.5-3.3,1.4c-0.9,0.9-1.3,2.1-1.3,3.4c0,1.3,0.4,2.3,1.3,3.2c0.9,0.9,2,1.3,3.3,1.3c1.4,0,2.5-0.4,3.3-1.3
	C113.7,18.2,114.1,17.1,114.1,15.7L114.1,15.7z M85,17.3c0,1.9,0.7,3.5,2.2,4.8c1.4,1.3,3.1,2,5.1,2c2,0,3.7-0.7,5.1-2.1
	c1.4-1.4,2.1-3,2.1-5c0-2.1-0.8-3.8-2.4-5.1c-0.6-0.5-1.3-0.9-2.1-1.2c-0.2-0.1-1-0.4-2.3-0.8c-0.9-0.3-1.5-0.6-1.9-0.9
	c-0.6-0.5-0.9-1.1-0.9-1.8c0-0.7,0.2-1.2,0.6-1.7c0.4-0.4,0.9-0.7,1.6-0.7c0.7,0,1.2,0.2,1.7,0.6c0.5,0.4,0.7,1,0.7,1.6h4.3
	c0-1.8-0.6-3.2-1.9-4.5c-1.3-1.2-2.8-1.9-4.6-1.9c-1.8,0-3.4,0.6-4.7,1.8c-1.3,1.2-1.9,2.7-1.9,4.5c0,1.7,0.6,3.1,1.8,4.3
	c0.5,0.5,1.1,1,1.8,1.3c0.4,0.2,1.1,0.4,2.1,0.8c1.2,0.4,2.1,0.8,2.6,1.2c0.8,0.6,1.2,1.5,1.2,2.6c0,0.8-0.3,1.5-0.8,2
	c-0.6,0.5-1.2,0.8-2.1,0.8c-0.9,0-1.6-0.2-2.2-0.7c-0.6-0.5-0.9-1.2-0.9-2H85L85,17.3z M50.4,17.3h4.3c0,0.9,0.3,1.5,0.9,2
	c0.6,0.5,1.3,0.7,2.2,0.7c0.8,0,1.5-0.3,2.1-0.8c0.6-0.5,0.8-1.2,0.8-2c0-1.1-0.4-2-1.2-2.6c-0.5-0.4-1.4-0.8-2.6-1.2
	c-1-0.3-1.7-0.6-2.1-0.8c-0.7-0.3-1.3-0.8-1.8-1.3c-1.2-1.2-1.8-2.6-1.8-4.3c0-1.8,0.6-3.3,1.9-4.5c1.3-1.2,2.8-1.8,4.7-1.8
	c1.8,0,3.3,0.6,4.6,1.9c1.3,1.2,1.9,2.7,1.9,4.5h-4.3c0-0.7-0.2-1.2-0.7-1.6c-0.5-0.4-1.1-0.6-1.7-0.6c-0.7,0-1.2,0.2-1.6,0.7
	c-0.4,0.4-0.6,1-0.6,1.7c0,0.7,0.3,1.3,0.9,1.8c0.4,0.3,1,0.6,1.9,0.9c1.3,0.5,2.1,0.7,2.3,0.8c0.8,0.3,1.5,0.7,2.1,1.2
	c1.6,1.3,2.4,3,2.4,5.1c0,2-0.7,3.6-2.1,5c-1.4,1.4-3.1,2.1-5.1,2.1c-1.9,0-3.6-0.7-5.1-2C51.1,20.8,50.4,19.1,50.4,17.3z"/>
<g>
	<path class="st1" d="M141.4,5.2v-1h0.6v1H141.4L141.4,5.2z M143.2,5.2h0.6l1.8-4.3l-0.6,0l-1.5,3.6L142,0.9l-0.6,0L143.2,5.2
		L143.2,5.2z M146.2,5.2V0.9h0.6v0.6c0.3-0.5,0.8-0.7,1.3-0.7c0.3,0,0.6,0.1,0.8,0.2c0.3,0.1,0.5,0.3,0.7,0.5
		c0.2,0.2,0.3,0.4,0.3,0.6c0.1,0.2,0.1,0.5,0.1,0.8v2.3h-0.6V2.9c0-0.3,0-0.5-0.1-0.6c0-0.1-0.1-0.3-0.2-0.4
		c-0.3-0.4-0.6-0.6-1.1-0.6c-0.2,0-0.4,0-0.6,0.1c-0.2,0.1-0.3,0.2-0.5,0.4c-0.1,0.1-0.2,0.3-0.2,0.5c0,0.2,0,0.4,0,0.6v2.3H146.2z"
		/>
	<path class="st1" d="M4.8,23.6L0,10.7l1.9,0l4,10.7l3-9.1h1.5l3,9.2l4.1-10.8h1.8l-4.9,12.9h-2L9.5,15l-2.7,8.6L4.8,23.6L4.8,23.6z
		 M35,23.6V6.2h1.7v6.9c0.4-0.8,1.1-1.5,2-2c0.9-0.5,1.9-0.7,2.9-0.7c1.9,0,3.6,0.6,4.9,1.9c1.4,1.3,2,2.9,2,4.8
		c0,0.9-0.1,1.7-0.4,2.4c-0.3,0.8-0.7,1.4-1.1,1.8c-0.9,1-1.7,1.6-2.6,2c-0.8,0.3-1.7,0.5-2.7,0.5c-1,0-2-0.2-2.9-0.6
		c-1-0.5-1.8-1.1-2.2-1.9v2.2H35L35,23.6z M41.6,12.1c-0.7,0-1.3,0.1-2,0.4c-0.6,0.3-1.2,0.6-1.7,1.1c-0.5,0.5-0.8,1-1.1,1.6
		c-0.2,0.6-0.3,1.2-0.3,2c0,1.4,0.5,2.6,1.5,3.6c1,0.9,2.2,1.4,3.7,1.4c1.4,0,2.6-0.5,3.6-1.5c1-1,1.5-2.2,1.5-3.6
		c0-1.4-0.5-2.6-1.5-3.6C44.3,12.6,43,12.1,41.6,12.1L41.6,12.1z M33.1,17.7H21.4c0,1.2,0.5,2.2,1.5,3.1c1,0.9,2.1,1.3,3.3,1.3
		c1,0,1.9-0.3,2.8-0.8c0.9-0.5,1.5-1.2,1.8-2.1h1.8c-0.5,1.3-1.3,2.4-2.4,3.2c-1.2,0.9-2.4,1.3-3.8,1.3c-1.9,0-3.5-0.7-4.8-2
		c-1.3-1.3-2-2.9-2-4.8c0-1.9,0.7-3.4,2-4.8c1.3-1.3,2.9-2,4.8-2c1,0,1.9,0.2,2.8,0.6c0.9,0.4,1.7,1,2.4,1.8c0.6,0.7,1,1.5,1.2,2.2
		C33,15.9,33.1,16.7,33.1,17.7L33.1,17.7z M21.4,16.2h9.9c-0.2-1.2-0.8-2.1-1.7-2.9c-0.9-0.8-2-1.2-3.2-1.2c-1.2,0-2.3,0.4-3.3,1.2
		C22.2,14,21.6,15,21.4,16.2z"/>
</g>
</svg>
