<?xml version="1.0" encoding="utf-8"?>
<!-- Generator: Adobe Illustrator 21.0.0, SVG Export Plug-In . SVG Version: 6.00 Build 0)  -->
<svg version="1.1" id="Layer_1" xmlns="http://www.w3.org/2000/svg" xmlns:xlink="http://www.w3.org/1999/xlink" x="0px" y="0px"
	 viewBox="0 0 174 59" style="enable-background:new 0 0 174 59;" xml:space="preserve">
<style type="text/css">
	.st0{fill:#0C81F6;}
</style>
<g id="XMLID_1640_">
	<g id="XMLID_409_">
		<path id="XMLID_411_" class="st0" d="M84.9,46.3c0.1,0,0.3,0.1,0.4,0.2c0.1,0.1,0.2,0.2,0.2,0.4c0,0.3-0.1,0.9-0.3,1.8
			c-0.2,1.1-0.3,2.3-0.4,3.6c-0.1,1.3-0.1,2.1-0.1,2.4c0,0.2-0.1,0.3-0.2,0.5c-0.2,0.2-0.3,0.3-0.4,0.3c-0.1,0-0.2-0.1-0.4-0.2
			c-0.1-0.1-0.2-0.2-0.2-0.4c0-0.1,0.1-0.6,0.2-1.5c0.1-0.7,0.1-1.2,0.1-1.5c0-0.2,0-0.3-0.1-0.4c-0.1-0.1-0.1-0.1-0.3-0.1
			c-0.2,0-0.6,0-1.1,0.1c-0.6,0-1,0.1-1.1,0.1c-0.2,0-0.6,0-1.2,0.1c-0.6,0-1,0.1-1.1,0.1c-0.1,0-0.1,0.3-0.2,0.8
			c-0.1,0.5-0.1,0.9-0.1,1.2c0,0.5-0.1,1-0.2,1.3c-0.1,0.3-0.2,0.5-0.4,0.5c-0.1,0-0.2-0.1-0.4-0.3c-0.2-0.2-0.2-0.3-0.2-0.5
			c0-0.2,0-0.4,0.1-0.8c0.1-0.5,0.3-1.4,0.5-2.7c0.2-1.3,0.3-2.6,0.5-4.1c0-0.1,0.1-0.2,0.2-0.3s0.2-0.1,0.3-0.1
			c0.4,0,0.6,0.3,0.6,0.8c0,0.3-0.1,0.8-0.2,1.5c-0.1,0.6-0.2,1.1-0.2,1.4c0,0.1,0,0.2,0.1,0.3c0.1,0.1,0.3,0.1,0.5,0.1
			c0.6,0,1.5-0.1,2.5-0.2c1.1-0.1,1.6-0.2,1.7-0.4c0.1-0.2,0.2-0.6,0.3-1.3c0.1-0.7,0.1-1.4,0.1-2.1c0-0.1,0.1-0.2,0.2-0.3
			C84.7,46.3,84.8,46.3,84.9,46.3z"/>
		<path id="XMLID_417_" class="st0" d="M90.8,52.9c-0.5,0.7-1.1,1.3-1.6,1.6c-0.5,0.4-1,0.5-1.4,0.5c-0.3,0-0.5-0.1-0.8-0.4
			c-0.2-0.2-0.3-0.6-0.3-1c0-1,0.4-2.1,1.3-3.2c0.9-1.2,1.8-1.7,2.7-1.7c0.3,0,0.6,0.2,0.7,0.5c0,0.1,0.1,0.2,0.2,0.2
			c0.3,0,0.5,0.1,0.5,0.4c0,0.1,0,0.3-0.1,0.5c-0.2,1.1-0.3,1.9-0.3,2.4c0,0.9,0.2,1.5,0.5,1.7c0.2,0.1,0.3,0.2,0.3,0.3
			c0,0.1-0.1,0.2-0.2,0.4c-0.2,0.1-0.3,0.2-0.5,0.2c-0.3,0-0.5-0.2-0.7-0.6C90.9,54.2,90.8,53.7,90.8,52.9z M90.5,49.7
			c-0.5,0-1.1,0.5-1.7,1.4c-0.7,0.9-1,1.7-1,2.3c0,0.4,0.1,0.7,0.4,0.7c0.4,0,1-0.4,1.7-1.3c0.7-0.8,1.1-1.6,1.1-2.3
			C91,50,90.8,49.7,90.5,49.7z"/>
		<path id="XMLID_421_" class="st0" d="M95.2,54.3C95,55,94.8,56,94.7,57.2l-0.2,1.1c0,0.2-0.1,0.3-0.2,0.5S94.1,59,94,59
			c-0.1,0-0.3-0.1-0.4-0.2c-0.2-0.1-0.2-0.2-0.2-0.3c0-0.2,0-0.5,0.1-0.9c0.7-2.8,1-5.3,1-7.4l0-0.5c0-0.4,0.1-0.7,0.2-0.9
			c0.2-0.2,0.3-0.3,0.5-0.3c0.1,0,0.2,0.1,0.3,0.2s0.1,0.3,0.1,0.6c0,0.4,0,0.8-0.1,1.3c-0.1,0.7-0.2,1-0.2,1.1
			c0.6-1,1.2-1.8,1.8-2.3c0.6-0.6,1.2-0.8,1.8-0.8c0.4,0,0.7,0.1,1,0.4c0.3,0.3,0.4,0.6,0.4,1.1c0,1.2-0.5,2.4-1.4,3.4
			c-1,1-1.9,1.5-2.8,1.5c-0.2,0-0.4-0.1-0.5-0.2C95.5,54.8,95.3,54.6,95.2,54.3z M98.7,49.8c-0.5,0-1.2,0.5-2,1.5
			c-0.8,1-1.2,1.8-1.2,2.3c0,0.1,0.1,0.3,0.2,0.4c0.2,0.1,0.4,0.2,0.6,0.2c0.5,0,1.2-0.4,1.9-1.2c0.7-0.8,1.1-1.6,1.1-2.4
			c0-0.3-0.1-0.5-0.2-0.6C99,49.8,98.9,49.8,98.7,49.8z"/>
		<path id="XMLID_442_" class="st0" d="M103,54.3c-0.2,0.7-0.4,1.6-0.5,2.9l-0.2,1.1c0,0.2-0.1,0.3-0.2,0.5
			c-0.1,0.2-0.2,0.2-0.3,0.2c-0.1,0-0.3-0.1-0.4-0.2c-0.2-0.1-0.2-0.2-0.2-0.3c0-0.2,0-0.5,0.1-0.9c0.7-2.8,1-5.3,1-7.4l0-0.5
			c0-0.4,0.1-0.7,0.2-0.9c0.2-0.2,0.3-0.3,0.5-0.3c0.1,0,0.2,0.1,0.3,0.2s0.1,0.3,0.1,0.6c0,0.4,0,0.8-0.1,1.3
			c-0.1,0.7-0.2,1-0.2,1.1c0.6-1,1.2-1.8,1.8-2.3c0.6-0.6,1.2-0.8,1.8-0.8c0.4,0,0.7,0.1,1,0.4c0.3,0.3,0.4,0.6,0.4,1.1
			c0,1.2-0.5,2.4-1.4,3.4c-1,1-1.9,1.5-2.8,1.5c-0.2,0-0.4-0.1-0.5-0.2C103.2,54.8,103.1,54.6,103,54.3z M106.5,49.8
			c-0.5,0-1.2,0.5-2,1.5c-0.8,1-1.2,1.8-1.2,2.3c0,0.1,0.1,0.3,0.2,0.4c0.2,0.1,0.4,0.2,0.6,0.2c0.5,0,1.2-0.4,1.9-1.2
			c0.7-0.8,1.1-1.6,1.1-2.4c0-0.3-0.1-0.5-0.2-0.6C106.8,49.8,106.7,49.8,106.5,49.8z"/>
		<path id="XMLID_445_" class="st0" d="M113.8,53c-0.7,0.6-1.3,1-1.8,1.3c-0.5,0.3-0.9,0.4-1.2,0.4c-0.4,0-0.7-0.2-0.9-0.5
			c-0.2-0.3-0.3-0.7-0.3-1.1c0-0.6,0.1-1.3,0.4-2.2c0.2-0.9,0.4-1.4,0.5-1.5c0.1-0.2,0.3-0.2,0.6-0.2c0.1,0,0.2,0.1,0.3,0.2
			c0.1,0.1,0.1,0.3,0.1,0.4c0,0.1,0,0.2-0.1,0.4c-0.2,0.4-0.3,0.6-0.3,0.6c0,0-0.1,0.3-0.2,0.7c-0.1,0.4-0.2,0.8-0.2,1.2
			c0,0.1,0,0.3,0.1,0.6c0.1,0.3,0.2,0.4,0.4,0.4c0.2,0,0.5-0.1,0.8-0.2s0.7-0.3,1-0.6c0.4-0.3,0.6-0.5,0.8-0.7
			c0.1-0.2,0.2-0.4,0.3-0.6c0.1-0.2,0.1-0.7,0.1-1.5c0-0.8,0.2-1.1,0.6-1.1c0.2,0,0.3,0.1,0.4,0.2c0.1,0.1,0.1,0.3,0.1,0.6
			c0,0.3,0,0.6-0.1,0.9c0,0.5-0.1,0.8-0.1,1c-0.1,1-0.2,2.1-0.4,3.1c-0.2,1.1-0.5,1.9-1,2.6c-0.4,0.7-1,1.1-1.7,1.1
			c-0.7,0-1.4-0.2-2-0.6c-0.6-0.4-0.9-0.7-0.9-1c0-0.1,0-0.2,0.1-0.4c0.1-0.1,0.1-0.2,0.2-0.2c0,0,0.1,0,0.1,0.1
			c0.5,0.8,1.3,1.1,2.3,1.1c0.6,0,1-0.5,1.4-1.5c0.4-1,0.6-1.9,0.6-2.7C113.8,53.3,113.8,53.2,113.8,53z"/>
		<path id="XMLID_447_" class="st0" d="M124.5,53.7c0-0.2-0.3-0.5-0.9-0.8c-0.8-0.4-1.3-0.7-1.6-0.9c-0.3-0.2-0.4-0.5-0.4-0.8
			c0-0.8,0.4-1.4,1.1-1.9c0.8-0.5,1.4-0.7,1.9-0.7c0.3,0,0.5,0.1,0.7,0.2c0.1,0.1,0.2,0.3,0.2,0.6c0,0.1-0.1,0.2-0.2,0.3
			c-0.1,0.1-0.2,0.1-0.2,0.1c0,0-0.1,0-0.2-0.1c-0.1-0.1-0.2-0.1-0.2-0.1c-0.2,0-0.6,0.1-1.2,0.4c-0.6,0.3-0.9,0.6-0.9,0.9
			c0,0.2,0.1,0.4,0.3,0.6c0.2,0.2,0.6,0.4,1.1,0.6c0.4,0.2,0.8,0.4,1,0.7c0.3,0.2,0.4,0.5,0.4,0.8c0,0.6-0.4,1-1.2,1.4
			c-0.8,0.3-1.6,0.5-2.3,0.5c-0.6,0-0.9-0.2-0.9-0.6c0-0.1,0.1-0.3,0.2-0.3c0.1-0.1,0.3-0.1,0.4-0.1c0.1,0,0.2,0,0.3,0.1
			c0.2,0,0.3,0.1,0.3,0.1c0.4,0,0.9-0.1,1.4-0.2C124.1,54.1,124.4,53.9,124.5,53.7z"/>
		<path id="XMLID_468_" class="st0" d="M127.8,53.3c1.4-2.6,2.6-3.9,3.5-3.9c0.2,0,0.4,0.1,0.6,0.4c0.2,0.3,0.3,0.9,0.4,1.8
			c0.1,1,0.3,1.7,0.6,2.2c0.2,0.2,0.3,0.4,0.3,0.5c0,0.1-0.1,0.2-0.2,0.3c-0.1,0.1-0.2,0.1-0.4,0.1c-0.3,0-0.6-0.2-0.8-0.5
			c-0.2-0.3-0.4-0.9-0.4-1.8c-0.1-0.8-0.1-1.3-0.2-1.6c-0.1-0.2-0.2-0.4-0.4-0.4c-0.4,0-1.2,1-2.4,3.1c-0.4,0.6-0.6,1-0.8,1.2
			c-0.2,0.2-0.3,0.3-0.5,0.3c-0.2,0-0.3,0-0.4-0.1c-0.1-0.1-0.2-0.2-0.2-0.4c0-0.1,0-0.3,0.1-0.6c0.5-2.4,0.8-4.8,1.1-7.2
			c0.1-0.6,0.2-0.9,0.3-1.1c0.1-0.2,0.2-0.3,0.3-0.3c0.2,0,0.3,0.1,0.4,0.2c0.1,0.1,0.2,0.3,0.2,0.6c0,0.7-0.2,1.7-0.5,2.9
			c-0.2,0.6-0.3,1.4-0.5,2.3C127.8,52.4,127.7,53,127.8,53.3C127.7,53.3,127.7,53.3,127.8,53.3L127.8,53.3z"/>
		<path id="XMLID_1199_" class="st0" d="M136.1,55.3c-0.5,0-1-0.2-1.3-0.6c-0.3-0.4-0.5-0.9-0.5-1.5c0-1,0.3-1.9,1-2.9
			c0.7-1,1.4-1.4,2.4-1.4c0.6,0,1.1,0.2,1.5,0.7c0.4,0.5,0.6,1,0.6,1.7c0,1-0.4,1.9-1.2,2.7C137.7,54.9,136.9,55.3,136.1,55.3z
			 M135.3,53.1c0,0.4,0.1,0.7,0.2,0.9c0.2,0.2,0.4,0.4,0.6,0.4c0.6,0,1.1-0.3,1.7-0.9c0.6-0.6,0.9-1.3,0.9-2.1
			c0-0.5-0.1-0.8-0.3-1.1c-0.2-0.3-0.5-0.4-0.9-0.4c-0.6,0-1.1,0.4-1.6,1.1C135.5,51.7,135.3,52.4,135.3,53.1z"/>
		<path id="XMLID_1639_" class="st0" d="M142.3,54.3c-0.2,0.7-0.4,1.6-0.5,2.9l-0.2,1.1c0,0.2-0.1,0.3-0.2,0.5s-0.2,0.2-0.3,0.2
			c-0.1,0-0.3-0.1-0.4-0.2s-0.2-0.2-0.2-0.3c0-0.2,0-0.5,0.1-0.9c0.7-2.8,1-5.3,1-7.4l0-0.5c0-0.4,0.1-0.7,0.2-0.9
			c0.2-0.2,0.3-0.3,0.5-0.3c0.1,0,0.2,0.1,0.3,0.2c0.1,0.1,0.1,0.3,0.1,0.6c0,0.4,0,0.8-0.1,1.3c-0.1,0.7-0.2,1-0.2,1.1
			c0.6-1,1.2-1.8,1.8-2.3c0.6-0.6,1.2-0.8,1.8-0.8c0.4,0,0.7,0.1,1,0.4c0.3,0.3,0.4,0.6,0.4,1.1c0,1.2-0.5,2.4-1.4,3.4
			c-1,1-1.9,1.5-2.8,1.5c-0.2,0-0.4-0.1-0.5-0.2C142.6,54.8,142.5,54.6,142.3,54.3z M145.9,49.8c-0.5,0-1.2,0.5-2,1.5
			c-0.8,1-1.2,1.8-1.2,2.3c0,0.1,0.1,0.3,0.2,0.4c0.2,0.1,0.4,0.2,0.6,0.2c0.5,0,1.2-0.4,1.9-1.2c0.7-0.8,1.1-1.6,1.1-2.4
			c0-0.3-0.1-0.5-0.2-0.6C146.2,49.8,146,49.8,145.9,49.8z"/>
		<path id="XMLID_1643_" class="st0" d="M150.1,54.3c-0.2,0.7-0.4,1.6-0.5,2.9l-0.2,1.1c0,0.2-0.1,0.3-0.2,0.5S149,59,148.9,59
			c-0.1,0-0.3-0.1-0.4-0.2c-0.2-0.1-0.2-0.2-0.2-0.3c0-0.2,0-0.5,0.1-0.9c0.7-2.8,1-5.3,1-7.4l0-0.5c0-0.4,0.1-0.7,0.2-0.9
			c0.2-0.2,0.3-0.3,0.5-0.3c0.1,0,0.2,0.1,0.3,0.2c0.1,0.1,0.1,0.3,0.1,0.6c0,0.4,0,0.8-0.1,1.3c-0.1,0.7-0.2,1-0.2,1.1
			c0.6-1,1.2-1.8,1.8-2.3c0.6-0.6,1.2-0.8,1.8-0.8c0.4,0,0.7,0.1,1,0.4c0.3,0.3,0.4,0.6,0.4,1.1c0,1.2-0.5,2.4-1.4,3.4
			c-1,1-1.9,1.5-2.8,1.5c-0.2,0-0.4-0.1-0.5-0.2C150.4,54.8,150.2,54.6,150.1,54.3z M153.6,49.8c-0.5,0-1.2,0.5-2,1.5
			c-0.8,1-1.2,1.8-1.2,2.3c0,0.1,0.1,0.3,0.2,0.4c0.2,0.1,0.4,0.2,0.6,0.2c0.5,0,1.2-0.4,1.9-1.2c0.7-0.8,1.1-1.6,1.1-2.4
			c0-0.3-0.1-0.5-0.2-0.6C154,49.8,153.8,49.8,153.6,49.8z"/>
		<path id="XMLID_1646_" class="st0" d="M157.9,53.7c0,0.3,0,0.6,0.1,1c0,0.1,0,0.1,0,0.2c0,0.1-0.1,0.2-0.2,0.3
			c-0.1,0.1-0.3,0.2-0.4,0.2c-0.4,0-0.6-0.3-0.6-1c0-0.7,0.1-1.8,0.4-3.3c0.1-0.5,0.1-0.9,0.1-1c0-0.2,0-0.4,0.1-0.6
			c0.1-0.2,0.2-0.3,0.4-0.3c0.2,0,0.3,0,0.5,0.1c0.1,0.1,0.2,0.2,0.2,0.3c0,0.1,0,0.3-0.1,0.4c-0.3,1-0.5,1.7-0.5,2.2
			S157.9,53.1,157.9,53.7z M158.6,47.4c-0.1,0-0.1-0.1-0.2-0.3c0-0.1,0-0.1-0.1-0.2c-0.1-0.2-0.2-0.5-0.2-0.6c0-0.2,0.1-0.3,0.3-0.5
			c0.2-0.2,0.4-0.2,0.6-0.2c0.1,0,0.2,0,0.4,0.1c0.1,0.1,0.2,0.2,0.2,0.2c0,0.1,0,0.3-0.1,0.6c-0.1,0.3-0.2,0.5-0.4,0.6
			C158.9,47.3,158.7,47.4,158.6,47.4z"/>
		<path id="XMLID_1649_" class="st0" d="M164.3,50.6c-0.2,0-0.4,0.1-0.6,0.4s-0.6,0.8-1.1,1.7c-0.6,1.2-1,1.9-1.2,2.1
			c-0.2,0.2-0.3,0.3-0.5,0.3c-0.4,0-0.7-0.2-0.7-0.6c0-0.2,0-0.4,0.1-0.8c0.2-1.1,0.3-2.4,0.3-3.6c0-0.1,0.1-0.3,0.2-0.5
			c0.1-0.2,0.2-0.3,0.4-0.3c0.2,0,0.3,0.1,0.4,0.2c0.1,0.1,0.1,0.4,0.1,0.7c0,0.4-0.1,1.2-0.3,2.4c-0.1,0.4-0.1,0.6-0.1,0.8
			c0,0.1,0,0.1,0,0.1c0.1,0,0.3-0.5,0.8-1.4c0.5-0.9,0.9-1.6,1.2-1.9c0.4-0.4,0.8-0.6,1.2-0.6c0.3,0,0.6,0.2,0.8,0.5
			c0.2,0.3,0.4,0.9,0.5,1.7c0.1,0.9,0.2,1.5,0.3,1.8c0.1,0.2,0.2,0.3,0.4,0.3c0.1,0,0.3,0,0.4-0.1c0,0,0.1,0,0.1,0
			c0.2,0,0.2,0.1,0.2,0.3c0,0.2-0.1,0.3-0.3,0.5c-0.2,0.2-0.5,0.3-0.8,0.3c-0.3,0-0.6-0.1-0.7-0.4c-0.2-0.3-0.3-0.9-0.4-2.1
			C164.8,51.2,164.6,50.6,164.3,50.6z"/>
		<path id="XMLID_1651_" class="st0" d="M172.4,52.9c0,0-0.2,0.1-0.4,0.3c-0.3,0.4-0.8,0.8-1.3,1.1c-0.5,0.3-1,0.5-1.5,0.5
			c-0.3,0-0.6-0.1-0.8-0.3c-0.2-0.2-0.3-0.5-0.3-0.9c0-0.6,0.2-1.2,0.7-2c0.4-0.7,1.1-1.4,1.9-1.9c0.8-0.5,1.5-0.8,2.1-0.8
			c0.3,0,0.6,0.1,0.8,0.3c0.1,0,0.1,0.1,0.1,0.1c0.1,0,0.1,0.1,0.2,0.3c0.1,0.2,0.1,0.3,0.1,0.4c0,0.1,0,0.1-0.1,0.3
			c-0.2,0.6-0.4,1.2-0.5,1.6c-0.1,0.4-0.2,1.1-0.3,2.1c-0.1,0.9-0.2,1.6-0.3,2c-0.1,0.5-0.3,0.9-0.6,1.4c-0.3,0.4-0.6,0.8-1,1
			c-0.4,0.2-0.8,0.3-1.2,0.3c-0.7,0-1.4-0.2-2.1-0.7c-0.7-0.5-1-0.9-1-1.2c0-0.2,0.1-0.3,0.2-0.3c0.1,0,0.3,0.1,0.6,0.3
			c0.9,0.6,1.7,0.9,2.4,0.9c0.6,0,1.1-0.3,1.4-1c0.3-0.7,0.5-1.7,0.7-3C172.3,53.4,172.4,53.1,172.4,52.9z M172.4,49.8
			c-0.3,0-0.7,0.2-1.2,0.5c-0.5,0.3-1,0.8-1.4,1.5c-0.5,0.6-0.7,1.2-0.7,1.6c0,0.1,0,0.3,0.1,0.4c0.1,0.1,0.2,0.1,0.3,0.1
			c0.3,0,0.8-0.2,1.3-0.5s1-0.8,1.4-1.5c0.4-0.6,0.6-1.1,0.6-1.5C172.9,50,172.7,49.8,172.4,49.8z"/>
	</g>
	<path id="XMLID_410_" class="st0" d="M173.7,31.1L173.7,31.1c0-0.1,0-0.2-0.1-0.3c0-0.2-0.1-0.3-0.1-0.5c-0.2-1.6-0.7-2.7-1.4-3.7
		c-1.2-1.6-3.2-2.4-5.3-2.4c-2.2,0.1-4.3,1.1-5.5,2.8c-0.1,0.1-0.2,0.3-0.3,0.4l0,0.1c-1.1-2.1-2.9-3.2-5.2-3.2c0,0,0,0,0,0
		c-2.4,0-4.2,0.8-5.5,2.6c0-0.2,0-0.4,0-0.5c-0.1-0.6-0.3-1.1-0.7-1.4c-0.4-0.3-1-0.5-1.5-0.4c-1.1,0.1-1.8,1-1.8,2.3
		c0,4.5,0.1,9,0.1,13.2c0,0.5,0.1,0.9,0.2,1.2c0.3,0.7,1,1.2,1.8,1.2c0.1,0,0.3,0,0.4,0c0.9-0.2,1.6-1,1.6-2c0-1.3,0-2.7,0-4
		c0-1.1,0-2.1,0-3.2c0-0.7,0-1.2,0.1-1.7c0.4-2.1,2-3.4,4.4-3.3c1.8,0.1,3,1.5,3.1,3.6c0.1,1.6,0.1,3.2,0.1,4.8c0,1,0,2,0,3.1
		c0,0.6,0.1,1,0.2,1.4c0.3,0.8,1.3,1.3,2.2,1.1c1-0.2,1.7-1,1.7-2.1c0-1,0-2,0-3c0-1.3,0-2.7,0-4.1c0-0.8,0.1-1.6,0.3-2.2
		c0.4-1.5,1.5-2.5,3.1-2.7c1.2-0.2,2.7,0,3.5,1.6c0.4,0.7,0.6,1.7,0.6,2.7c0.1,1.6,0.1,3.3,0.1,5c0,0.9,0,1.8,0,2.7
		c0,1.1,0.7,2,1.6,2.1c1,0.2,1.9-0.3,2.4-1.4c0-0.1,0.1-0.1,0.1-0.2c0,0,0-0.1,0.1-0.1l0,0L173.7,31.1z"/>
	<path id="XMLID_1719_" class="st0" d="M105.8,38.6c-0.8,0.3-1.1,1-1.4,1.6l0,0l0,1l0.1,0.2c0.1,0.1,0.1,0.2,0.2,0.3
		c0.4,0.7,1.2,1.1,2,1.1c0.4,0,0.8-0.1,1.1-0.3c1.1-0.5,1.5-1.8,1-2.9C108.4,38.6,107,38.1,105.8,38.6z"/>
	<path id="XMLID_1725_" class="st0" d="M135.3,24c0,0-0.1,0-0.1,0c-2.6,0-4.9,1-6.6,2.7c-1.7,1.7-2.6,4-2.5,6.6c0,2.6,1,4.9,2.7,6.6
		c1.7,1.6,4,2.6,6.5,2.6c0.1,0,0.1,0,0.2,0c2.6,0,4.9-1,6.5-2.7c1.7-1.7,2.6-4.1,2.5-6.7C144.4,27.8,140.5,24,135.3,24z M135.3,38.4
		c-3,0-5.1-2.1-5.1-5.2c0-2.9,2.1-5.1,5-5.1c0,0,0.1,0,0.1,0c1.4,0,2.7,0.5,3.6,1.4c1,0.9,1.5,2.2,1.5,3.6c0,1.5-0.5,2.8-1.5,3.8
		C138,37.8,136.7,38.4,135.3,38.4C135.3,38.4,135.3,38.4,135.3,38.4z"/>
	<path id="XMLID_1726_" class="st0" d="M123.2,37.7c-0.2,0.1-0.4,0.2-0.6,0.3c-0.3,0.1-0.6,0.3-0.9,0.4c-2.1,0.8-4.5,0.2-5.9-1.4
		c-1.3-1.5-1.6-3.9-0.8-5.7c1-2,3-3.1,5.3-2.8c0.7,0.1,1.4,0.3,2,0.6c0.3,0.1,0.7,0.2,1,0.3c1.1,0.3,2,0,2.4-0.9
		c0.5-1,0.2-2-0.8-2.6c-3.8-2.6-9.8-1.6-12.6,2c-2.3,3-2.7,6.5-1,10c1.5,3.1,4.3,4.9,7.8,5h0h0c2.6,0,4.3-0.5,5.8-1.5
		c1.1-0.7,1.4-1.8,0.8-2.8C125.4,37.4,124.3,37.2,123.2,37.7z"/>
	<path id="XMLID_1733_" class="st0" d="M71.6,24.4c-1.1,0-2,0.8-2.1,2c0,0,0,0,0,0c-0.3-0.2-0.5-0.5-0.8-0.7
		c-2.5-1.8-5.2-2.1-8.2-0.8c-2.7,1.1-4.6,3.5-5.2,6.5c-0.6,3.2,0.4,6.5,2.5,8.6c1.8,1.7,4.5,2.7,7,2.4c1.9-0.2,3.6-1,4.7-2.3
		c0,0.1,0,0.1,0,0.2c0,0.7-0.1,1.4-0.2,2.1c-0.3,2-1.3,3.3-2.8,3.9c-2.4,0.9-4.6,0.5-6.4-1.3c-1-1-2.2-1.1-3.1-0.2
		c-0.8,0.8-0.7,2,0.2,3c1.8,2,4,3,6.7,3c0.1,0,0.1,0,0.2,0c3.8,0,6.4-1.3,8-4c1-1.7,1.5-3.7,1.6-6.1c0.1-2.4,0.1-4.8,0.1-7.1
		c0-0.7,0-1.4,0-2.1l0-0.7c0-1.4,0-2.8,0-4.3C73.7,25.4,72.8,24.5,71.6,24.4z M69,35.9c-0.1,0.2-0.3,0.5-0.5,0.7
		c-1,0.9-2.8,1.9-4.1,1.8c-2.9,0-4.9-2.1-4.9-5.1c0-1.4,0.5-2.7,1.5-3.6c0.9-0.9,2.2-1.4,3.6-1.4c2.9,0,5,2.1,4.9,5
		c0,1,0,1.7-0.3,2.3C69.1,35.8,69,35.9,69,35.9z"/>
	<path id="XMLID_1737_" class="st0" d="M101.9,26.7c0-0.2,0-0.4-0.1-0.6c-0.2-1-1.1-1.7-2.2-1.6c-1,0.1-1.8,0.8-1.9,1.9
		c0,0.1,0,0.1,0,0.2c-1.9-2-4.3-2.7-7.2-2.1c-3.2,0.6-5.6,2.6-6.7,5.6c-1.1,3.2-0.5,7,1.6,9.4c1.6,1.9,4.2,3,6.8,3c0,0,0,0,0,0
		c2.1,0,4.1-0.8,5.5-2.3c0,0.1,0,0.2,0,0.3c0.1,0.6,0.4,1.2,1,1.5c0.5,0.3,1.1,0.4,1.7,0.2c1-0.3,1.5-1.1,1.5-2.1
		c0-3.8,0-7.6,0-11.3L101.9,26.7z M97.6,33.4c0,1.4-0.5,2.7-1.5,3.6c-0.9,0.9-2.2,1.4-3.6,1.4c-2.9,0-4.9-2.2-4.9-5.2
		c0-1.3,0.5-2.6,1.4-3.5c0.9-0.9,2.2-1.4,3.6-1.4c1.4,0,2.6,0.6,3.5,1.5C97.1,30.8,97.6,32.1,97.6,33.4z"/>
	<path id="XMLID_1739_" class="st0" d="M78.6,24.4c-0.6,0-1.1,0.2-1.5,0.5c-0.4,0.4-0.7,1-0.7,1.8c0,4.8,0,9.6,0,13.3
		c0,0.3,0,0.7,0.2,1.1c0.3,0.8,1.1,1.3,1.9,1.3c0.1,0,0.3,0,0.4,0c1-0.2,1.7-1,1.7-2c0-1.7,0-3.3,0-5c0-0.6,0-1.2,0-1.7h0v-0.2
		c0-0.6,0-1.3,0-1.9c0-1.5,0-3.1,0-4.6C80.7,25.4,79.9,24.5,78.6,24.4z"/>
	<polygon id="XMLID_1740_" class="st0" points="20.9,7.4 24.5,5.1 28.2,7.4 28.2,7.4 26,3.7 28.2,0 24.5,2.3 20.9,0 23.1,3.7 
		20.9,7.4 	"/>
	<path id="XMLID_1741_" class="st0" d="M8.3,33.8C3.5,33,0,17.2,0,17.2c1.3,26.1,9.5,25.2,9.5,25.2c11.3,0,15.1-35.2,15.1-35.2
		C17.7,26.9,13.1,34.6,8.3,33.8z"/>
	<path id="XMLID_414_" class="st0" d="M41.4,34.2c0-2.4,0-4.9,0-7.3c0-0.3,0-0.6-0.1-0.8c-0.2-1-1.1-1.7-2.2-1.6
		c-1,0.1-1.8,0.8-1.9,1.9c0,0.1,0,0.1,0,0.2c0,0,0,0,0,0c-0.3-0.3-0.6-0.6-0.9-0.8c-1.7-1.2-4-1.7-6.2-1.3c-2.4,0.5-4.6,1.9-5.8,3.8
		c-0.6,0.9-0.9,1.8-1.1,2.7c-0.2,0.9-0.4,2.4-0.2,3.9c0,0.1,0,0.1,0,0.2c0,0.1,0,0.2,0.1,0.4c0.1,0.2,0.1,0.4,0.1,0.5
		c0.7,2.8,2.4,4.8,5.1,6c1.1,0.5,2.2,0.7,3.4,0.7c2.1,0,4.1-0.7,5.4-2.1c0.1-0.1,0.2-0.2,0.2-0.2c0,0.1,0,0.2,0,0.3
		c0.1,0.7,0.5,1.3,1.2,1.6c0.6,0.3,1.4,0.3,2-0.1c0.9-0.6,1-1.5,1-2.2C41.5,38,41.5,36.1,41.4,34.2z M32.1,38.4
		C32.1,38.4,32.1,38.4,32.1,38.4c-2.9,0-5-2.2-5-5.1c0-1.4,0.5-2.6,1.4-3.5c0.9-0.9,2.2-1.4,3.6-1.4c1.4,0,2.7,0.6,3.6,1.5
		c0.9,0.9,1.4,2.2,1.3,3.5C37.1,36.4,35,38.4,32.1,38.4z"/>
	<path id="XMLID_415_" class="st0" d="M52.5,24.6c-0.5,0-0.9,0-1.4,0c-0.2,0-0.3,0-0.5,0c0-0.4,0-0.8,0-1.2c0-1.1,0-2.1,0-3.1
		c0-0.7-0.3-1.4-0.7-1.8c-0.4-0.4-0.9-0.6-1.5-0.6c0,0,0,0,0,0c-1.2,0-2.1,1-2.1,2.4c0,0.6,0,1.2,0,1.7c0,0.3,0,0.5,0,0.8v1.7
		c-0.1,0-0.2,0-0.3,0c-0.3,0-0.6,0-0.9,0c-0.6,0-1.2,0.2-1.6,0.6c-0.3,0.3-0.5,0.8-0.5,1.2c0,1,0.8,1.7,2.1,1.7c0.3,0,0.6,0,0.9,0
		c0.1,0,0.2,0,0.2,0l0,3.1c0,2.4,0,4.9,0,7.3l0,0h0c0,0.4,0,0.9,0,1.3c0,0.1,0,0.3,0,0.4c0.1,0.7,0.5,1.4,1.1,1.8
		c0.3,0.2,0.6,0.3,1,0.3c0,0,0.1,0,0.1,0c0,0,0.1,0,0.1,0c0.3,0,0.7-0.1,1-0.3c0.6-0.4,1-1,1.1-1.8c0-0.1,0-0.3,0-0.4
		c0-2.6,0-5.3,0-7.8c0-1.1,0-2.1,0-3.2v-0.6c0.2,0,0.3,0,0.5,0c0.5,0,1,0,1.5,0c1.1,0,1.9-0.8,1.9-1.8
		C54.4,25.4,53.6,24.6,52.5,24.6z"/>
</g>
</svg>
